<svg xmlns="http://www.w3.org/2000/svg" viewBox="0 0 500 84.4"  fill="#fff" xmlns:v="https://vecta.io/nano"><path d="M88.5 19.6l2.1 1.9c-2.7 2.5-5.8 3.7-9 3.7-3.5 0-6.5-1.2-9-3.7-2.4-2.4-3.7-5.4-3.7-8.8s1.2-6.3 3.7-8.8C75 1.4 78 .2 81.6.2c3.3 0 6.3 1.3 9 3.8l-2.1 2c-2.2-2-4.5-3-6.9-3-2.6 0-4.8.9-6.7 2.8s-2.8 4.2-2.8 6.9.9 5.1 2.8 6.9c1.9 1.9 4.1 2.8 6.7 2.8 2.3.2 4.6-.8 6.9-2.8zm25-15.6c2.5 2.5 3.7 5.4 3.7 8.8s-1.2 6.3-3.7 8.8-5.4 3.7-9 3.7c-3.5 0-6.5-1.2-9-3.7s-3.7-5.4-3.7-8.8S93 6.5 95.5 4s5.4-3.7 9-3.7c3.5 0 6.5 1.2 9 3.7zm-9-1c-2.6 0-4.8.9-6.7 2.8S95 10 95 12.7s.9 5.1 2.8 7 4.1 2.8 6.7 2.8 4.9-.9 6.7-2.8c1.9-1.9 2.8-4.2 2.8-7 0-2.7-.9-5-2.8-6.9S107.1 3 104.5 3zM122.2.7l13.9 19.4V.7h3.1V25h-3.4L122.2 6v19h-3.1V.7h3.1zm40.5 21c-2.5 2.4-5.4 3.6-8.7 3.6-3.5 0-6.5-1.2-9-3.7-2.4-2.4-3.7-5.4-3.7-8.8s1.2-6.3 3.7-8.8c2.4-2.5 5.4-3.7 9-3.7 3.3 0 6.3 1.3 9 3.8L160.9 6c-2.2-2-4.5-3-6.9-3-2.6 0-4.8.9-6.7 2.8s-2.8 4.2-2.8 6.9.9 5.1 2.8 6.9c1.9 1.9 4.1 2.8 6.7 2.8 2.2 0 4.1-.6 5.6-1.9v-7.4h3v8.6zm8.5-4.7h-2.9v8h-3.1V.7h7c2 .3 3.7 1.1 5.1 2.5 1.6 1.6 2.4 3.5 2.4 5.7s-.8 4.1-2.5 5.8c-1.1 1.1-2 1.7-2.9 1.9l5.5 8.4h-3.5l-5.1-8zm-2.8-13.7v11h3c1.4 0 2.7-.5 3.7-1.6a5.28 5.28 0 0 0 1.6-3.9c0-1.6-.5-2.9-1.6-3.9s-2.3-1.6-3.7-1.6h-3zM195.3.7v2.7h-10.2v8.2h10.2v2.7h-10.2v8.2h10.2V25H182V.7h13.3zm9.6 11.5c-1.7-.6-3.1-1.4-4.2-2.5s-1.6-2.3-1.6-3.8a5.28 5.28 0 0 1 1.6-3.9 5.66 5.66 0 0 1 4.1-1.7 5.66 5.66 0 0 1 4.1 1.7c.6.6 1.1 1.4 1.4 2.5l-2.7 1.1c-.3-.9-.6-1.5-.9-1.8-.6-.6-1.2-.8-1.9-.8s-1.3.3-1.9.8c-.5.5-.8 1.2-.8 2.1 0 .8.3 1.5.8 2.1.6.6 1.4 1.1 2.4 1.6 1.9.6 3.6 1.6 4.9 2.9 1.5 1.5 2.2 3.2 2.2 5.3a7.25 7.25 0 0 1-2.2 5.3c-1.5 1.5-3.3 2.2-5.5 2.2s-4-.8-5.5-2.3c-1.2-1.2-1.9-2.7-2.2-4.5l2.9-1.1c.2 1.8.7 3.1 1.5 3.9.9.9 2 1.4 3.2 1.4 1.3 0 2.3-.5 3.3-1.4.9-.9 1.4-2.1 1.4-3.5s-.5-2.5-1.4-3.4c-.6-1-1.7-1.7-3-2.2zM235.3 4c2.5 2.5 3.7 5.4 3.7 8.8s-1.2 6.3-3.7 8.8-5.4 3.7-9 3.7c-3.5 0-6.5-1.2-9-3.7s-3.7-5.4-3.7-8.8 1.2-6.3 3.7-8.8 5.4-3.7 9-3.7c3.5 0 6.5 1.2 9 3.7zm-9-1c-2.6 0-4.8.9-6.7 2.8s-2.8 4.2-2.8 6.9.9 5.1 2.8 7 4.1 2.8 6.7 2.8 4.9-.9 6.7-2.8c1.9-1.9 2.8-4.2 2.8-7 0-2.7-.9-5-2.8-6.9-1.8-1.9-4.1-2.8-6.7-2.8zM247.5.7v24.5h-3.1V.7h3.1zm6.1 0l14 19.6V.7h3.1v24.5h-3.4l-13.6-19v19.1h-3.1V.7h3zm27.5 2.7v21.8H278V3.4h-5.9V.7H287v2.7h-5.9zM301.9.7v2.7h-10.3v8.2h10.3v2.7h-10.3v8.2h10.3v2.7h-13.3V.7h13.3zm8.9 16.5h-2.9v8h-3.1V.7h7c2 .3 3.8 1.1 5.1 2.5 1.6 1.6 2.4 3.5 2.4 5.7s-.8 4.2-2.5 5.8c-1.1 1.1-2.1 1.8-2.9 2l5.5 8.5H316l-5.2-8zm-2.9-13.8v11.1h3c1.4 0 2.7-.5 3.7-1.6 1.1-1.1 1.6-2.4 1.6-4s-.5-2.9-1.6-4-2.3-1.6-3.7-1.6h-3zM324.7.7l14 19.6V.7h3.1v24.5h-3.4l-13.7-19v19.1h-3.1V.7h3.1zm29.7 0l8.9 24.5H360L356.3 15h-6.7l-3.8 10.2h-3.2l9-24.5h2.8zm1 11.7L353 5.9l-2.4 6.5h4.8zm28 7.4l2.1 1.9c-2.8 2.5-5.8 3.8-9.1 3.8-3.6 0-6.6-1.2-9-3.7-2.5-2.5-3.7-5.4-3.7-8.8s1.2-6.3 3.7-8.8 5.5-3.7 9-3.7c3.3 0 6.4 1.3 9.1 3.8l-2.1 1.9c-2.2-2-4.6-3-7-3-2.6 0-4.9 1-6.8 2.9s-2.9 4.2-2.9 7 1 5.1 2.9 7 4.2 2.8 6.8 2.8c2.4-.1 4.7-1.1 7-3.1zM390.9.7v24.5h-3.1V.7h3.1zm24 3.4c2.5 2.5 3.7 5.4 3.7 8.8s-1.2 6.4-3.7 8.9-5.5 3.7-9.1 3.7-6.6-1.2-9-3.7c-2.5-2.5-3.7-5.4-3.7-8.9 0-3.4 1.2-6.4 3.7-8.8 2.5-2.5 5.5-3.7 9-3.7 3.6 0 6.7 1.2 9.1 3.7zm-9-1c-2.6 0-4.9 1-6.8 2.9s-2.9 4.2-2.9 7 1 5.1 2.9 7 4.2 2.9 6.8 2.9 4.9-1 6.8-2.9 2.9-4.2 2.9-7c0-2.7-1-5.1-2.9-7-1.9-2-4.2-2.9-6.8-2.9zM423.7.7l14 19.6V.7h3.1v24.5h-3.4l-13.6-19v19.1h-3.1V.7h3zm29.7 0l8.9 24.5h-3.2L455.4 15h-6.7L445 25.2h-3.2l9-24.5h2.6zm1 11.7L452 5.9l-2.4 6.5h4.8zm9 12.8V.7h3.1v21.8h8.8v2.7h-11.9zM103.3 51.4h-3.6v10h-3.8V30.9h8.8c2.5.3 4.7 1.4 6.4 3.1 2 2 3 4.4 3 7.2s-1 5.2-3.1 7.3c-1.4 1.4-2.6 2.2-3.6 2.4l6.9 10.6h-4.4l-6.6-10.1zm-3.6-17.2v13.9h3.8c1.8 0 3.3-.7 4.7-2 1.3-1.3 2-3 2-5s-.7-3.6-2-4.9-2.9-2-4.7-2h-3.8zm33.8-3.3v3.3h-12.8v10.3h12.8v3.3h-12.8v10.3h12.8v3.3h-16.6V30.9h16.6zm27.4 23.8l2.7 2.4c-3.4 3.1-7.2 4.7-11.4 4.7-4.4 0-8.2-1.5-11.3-4.6s-4.6-6.7-4.6-11c0-4.2 1.5-7.9 4.6-11s6.8-4.6 11.3-4.6c4.1 0 7.9 1.6 11.4 4.7l-2.7 2.4c-2.8-2.5-5.7-3.7-8.7-3.7-3.3 0-6.1 1.2-8.4 3.6-2.4 2.4-3.6 5.3-3.6 8.7 0 3.5 1.2 6.4 3.6 8.7 2.4 2.4 5.2 3.5 8.4 3.5 3-.1 5.9-1.3 8.7-3.8zm22.5-23.8h3.8v21.6c-.3 2.4-1.4 4.5-3.1 6.2-2 2-4.5 3-7.4 3-3 0-5.5-1-7.5-3s-3-4.4-3-7.2V30.9h3.8v20.5c0 2 .7 3.6 2 4.9s2.9 2 4.7 2 3.3-.7 4.7-2c1.3-1.3 2-3 2-4.9V30.9zm15 20.5h-3.6v10H191V30.9h8.8c2.5.3 4.7 1.4 6.4 3.1 2 2 3 4.4 3 7.2s-1 5.2-3.1 7.3c-1.4 1.4-2.6 2.2-3.6 2.4l6.9 10.6H205l-6.6-10.1zm-3.6-17.2v13.9h3.8c1.8 0 3.3-.7 4.7-2 1.3-1.3 2-3 2-5s-.7-3.6-2-4.9-2.9-2-4.7-2h-3.8zm25.6 11.2c-2.2-.7-4-1.7-5.3-3.1-1.3-1.3-2-2.9-2-4.8 0-1.8.7-3.5 2.1-4.9s3.1-2.1 5.2-2.1c2 0 3.8.7 5.2 2.1.8.7 1.3 1.8 1.8 3.1L224 37c-.4-1.1-.8-1.9-1.1-2.2-.7-.7-1.5-1.1-2.4-1.1s-1.7.3-2.3 1c-.7.7-1 1.6-1 2.6s.4 1.9 1.1 2.7c.7.7 1.7 1.4 3 2 2.4.8 4.5 2 6.1 3.7 1.9 1.9 2.8 4.1 2.8 6.6s-.9 4.8-2.8 6.6c-1.9 1.9-4.1 2.8-6.9 2.8-2.7 0-5-1-6.9-2.9-1.5-1.5-2.4-3.3-2.7-5.7l3.7-1.3c.2 2.2.9 3.8 1.9 4.9 1.1 1.1 2.5 1.7 4 1.7 1.6 0 2.9-.6 4.1-1.8s1.8-2.6 1.8-4.3-.6-3.2-1.7-4.3c-1.3-1.1-2.7-2-4.3-2.6zm38.2-10.3c3.1 3.1 4.6 6.8 4.6 11 0 4.3-1.5 8-4.6 11.1s-6.8 4.6-11.3 4.6c-4.4 0-8.2-1.5-11.3-4.6s-4.6-6.8-4.6-11.1 1.5-7.9 4.6-11 6.8-4.6 11.3-4.6 8.2 1.5 11.3 4.6zm-11.3-1.3c-3.3 0-6.1 1.2-8.5 3.6s-3.6 5.3-3.6 8.7c0 3.5 1.2 6.4 3.6 8.8s5.2 3.6 8.5 3.6 6.1-1.2 8.5-3.6 3.6-5.3 3.6-8.8c0-3.4-1.2-6.3-3.6-8.7s-5.2-3.6-8.5-3.6zm27 11.6c-2.2-.7-4-1.7-5.3-3.1-1.3-1.3-2-2.9-2-4.8 0-1.8.7-3.5 2.1-4.9s3.1-2.1 5.2-2.1c2 0 3.8.7 5.2 2.1.8.7 1.3 1.8 1.8 3.1l-3.4 1.3c-.4-1.1-.8-1.9-1.1-2.2-.7-.7-1.5-1.1-2.4-1.1s-1.7.3-2.3 1c-.7.7-1 1.6-1 2.6s.4 1.9 1.1 2.7c.7.7 1.7 1.4 3 2 2.4.8 4.5 2 6.1 3.7 1.9 1.9 2.8 4.1 2.8 6.6s-.9 4.8-2.8 6.6c-1.9 1.9-4.1 2.8-6.9 2.8-2.7 0-5-1-6.9-2.9-1.5-1.5-2.4-3.3-2.7-5.7l3.7-1.3c.2 2.2.9 3.8 1.9 4.9 1.1 1.1 2.5 1.7 4 1.7 1.6 0 2.9-.6 4.1-1.8s1.8-2.6 1.8-4.3-.6-3.2-1.7-4.3c-1.4-1.1-2.7-2-4.3-2.6zm20.7 2.2v13.6h-3.8V30.6h3.8v13.6h12.6V30.6h3.8v30.6h-3.8V47.6H295zm36.9-17h3.8v21.6c-.3 2.4-1.4 4.5-3.1 6.2-2 2-4.5 3-7.4 3-3 0-5.5-1-7.5-3s-3-4.4-3-7.2V30.6h3.8v20.5c0 2 .7 3.6 2 4.9s2.9 2 4.7 2 3.3-.7 4.7-2c1.3-1.3 2-3 2-4.9V30.6zm34.9 0v30.6H363V36.3l-10 13.2-10.1-13.2v24.9H339V30.6h4.1l9.8 12.9 9.8-12.9h4.1z"/><path d="M382.2 30.6l11.1 30.6h-4l-4.6-12.7h-8.3l-4.7 12.7h-4l11.2-30.6h3.3zm1.3 14.6l-2.9-8.1-3 8.1h5.9zm14.9-14.6L415.8 55V30.6h3.8v30.6h-4.2l-17-23.8v23.8h-3.8V30.6h3.8zm51 4.2c3.1 3.1 4.6 6.8 4.6 11 0 4.3-1.5 8-4.6 11.1s-6.8 4.6-11.3 4.6c-4.4 0-8.2-1.5-11.3-4.6s-4.6-6.8-4.6-11.1 1.5-7.9 4.6-11 6.8-4.6 11.3-4.6c4.4 0 8.2 1.5 11.3 4.6zm-11.3-1.2c-3.3 0-6.1 1.2-8.5 3.6s-3.6 5.3-3.6 8.7c0 3.5 1.2 6.4 3.6 8.8s5.2 3.6 8.5 3.6 6.1-1.2 8.5-3.6 3.6-5.3 3.6-8.8c0-3.4-1.2-6.3-3.6-8.7s-5.2-3.6-8.5-3.6zm27 11.5c-2.2-.7-4-1.7-5.3-3.1-1.3-1.3-2-2.9-2-4.8 0-1.8.7-3.5 2.1-4.9s3.1-2.1 5.2-2.1c2 0 3.8.7 5.2 2.1.8.7 1.3 1.8 1.8 3.1l-3.4 1.3c-.4-1.1-.8-1.9-1.1-2.2-.7-.7-1.5-1.1-2.4-1.1s-1.7.3-2.3 1c-.7.7-1 1.6-1 2.6s.4 1.9 1.1 2.7c.7.7 1.7 1.4 3 2 2.4.8 4.5 2 6.1 3.7 1.9 1.9 2.8 4.1 2.8 6.6s-.9 4.8-2.8 6.6c-1.9 1.9-4.1 2.8-6.9 2.8-2.7 0-5-1-6.9-2.9-1.5-1.5-2.4-3.3-2.7-5.7l3.7-1.3c.2 2.2.9 3.8 1.9 4.9 1.1 1.1 2.5 1.7 4 1.7 1.6 0 2.9-.6 4.1-1.8s1.8-2.6 1.8-4.3-.6-3.2-1.7-4.3c-1.4-1-2.8-1.9-4.3-2.6zM68.7 56c0-3.4 1-6.1 2.9-8 2.1-2 4.5-3.1 7.4-3.1s5.4 1 7.5 3.1c1.9 1.9 2.8 4.5 2.8 8v4.4H68.7V56zm2.3 1.8h16.1V56c0-2.6-.7-4.6-2.1-6-1.6-1.6-3.6-2.4-5.9-2.4s-4.3.8-5.9 2.4c-1.4 1.5-2.1 3.5-2.1 6v1.8zm-2.3-25.9H71v8.6h7v-8.6h2.3v8.6h7v-8.6h2.3v11.2H68.7V31.9zm431 29.2l-13.6-8.8c-.7-.4-1.3-.6-1.8-.6-.3 0-.6 0-.9.1-.9.2-1.5.6-2 1.4-.3.5-.4 1-.4 1.5 0 .2 0 .5.1.7a3.14 3.14 0 0 0 1.3 1.9c.4.3 1.1.5 1.9.6l-.4 2.6c-1-.1-1.9-.4-2.6-.8-1.3-.8-2.2-2-2.5-3.5-.1-.5-.2-.9-.2-1.4a5.29 5.29 0 0 1 .9-3 5.18 5.18 0 0 1 3.4-2.4c.5-.1 1-.2 1.5-.2a4.75 4.75 0 0 1 2.5.7c.8.5 4.3 2.7 10.5 6.8V49h2.3v12.1zm-10.3-29.5c3.2 0 5.8.7 7.7 2.1s2.9 3.2 2.9 5.3c0 2.2-1 3.9-2.9 5.4-1.9 1.4-4.5 2.1-7.7 2.1s-5.8-.7-7.7-2.1-2.9-3.2-2.9-5.4c0-2.1 1-3.9 2.9-5.3s4.5-2.1 7.7-2.1zm0 2.6c-2.7 0-4.7.5-6.1 1.5s-2.1 2.1-2.1 3.3.7 2.4 2.1 3.3c1.4 1 3.5 1.5 6.1 1.5 2.7 0 4.8-.5 6.2-1.5s2.1-2.1 2.1-3.3-.7-2.3-2.1-3.3-3.5-1.5-6.2-1.5zm10.3-5.1l-13.6-8.8c-.7-.4-1.3-.6-1.8-.6-.3 0-.6 0-.9.1-.9.2-1.5.6-2 1.4-.3.5-.4 1-.4 1.5 0 .2 0 .5.1.7a3.14 3.14 0 0 0 1.3 1.9c.4.3 1.1.5 1.9.6l-.4 2.6c-1-.1-1.9-.4-2.6-.8-1.3-.8-2.2-2-2.5-3.5-.1-.5-.2-.9-.2-1.4a5.29 5.29 0 0 1 .9-3 5.18 5.18 0 0 1 3.4-2.4c.5-.1 1-.2 1.5-.2a4.75 4.75 0 0 1 2.5.7c.8.5 4.3 2.7 10.5 6.8V17h2.3v12.1zm-2.3-20.9h-14.5l.9 1.3-1.4 1.9-4.4-5.8h19.3V1.4h2.3v11.2h-2.3V8.2zM23.8 21.8h-9.4v6.4c1.2.1 2.3.2 3.2.5 1 .2 1.8.5 2.5.9 1.1.5 1.9 1.2 2.5 2.1.5.9.8 1.9.8 3s-.3 2.2-1 3.2-1.6 1.8-2.7 2.4c-.9.4-1.9.8-3.1 1s-2.5.4-4 .4h-1.2l-.4-2.5h.9c1.2 0 2.4-.1 3.5-.3s2-.4 2.7-.8c.8-.4 1.4-.9 1.8-1.5s.6-1.3.6-2.1-.2-1.5-.7-2.1-1.2-1.1-2.2-1.5c-.5-.2-1.2-.3-2-.5-.8-.1-1.7-.2-2.8-.2h-.9v-11h12v2.6zm17.6 7.3c0 1-.2 2.1-.7 3-.4 1-1 1.8-1.7 2.4-.8.7-1.6 1.3-2.5 1.7s-2 .6-3.1.6-2.2-.2-3.2-.5c-1-.4-1.9-.9-2.7-1.7a8.88 8.88 0 0 1-1.6-2.2c-.4-.9-.6-1.9-.6-3.1s.2-2.4.7-3.6 1.5-2.7 2.9-4.4l4.1-4.7 3.5-3.7 2 1.6-6.4 6.6c.7.1 1.6.3 2.5.6s1.8.6 2.7 1.1c1.3.7 2.3 1.6 3 2.7.7 1 1.1 2.2 1.1 3.6zm-2.8.1c0-1.1-.3-2-1-2.9-.6-.9-1.5-1.6-2.7-2.1-.7-.3-1.4-.6-2.3-.8-.8-.2-1.5-.3-2-.3-.8.8-1.4 1.7-1.9 2.8s-.7 2.2-.7 3.3c0 .8.2 1.6.5 2.3s.7 1.3 1.2 1.7c.5.5 1 .8 1.7 1.1.6.2 1.3.3 2 .3.8 0 1.5-.1 2.1-.4s1.2-.6 1.6-1c.5-.5.9-1.1 1.1-1.8.3-.7.4-1.4.4-2.2zm5.6-9.6c0-.8.3-1.4.8-1.9.5-.4 1.2-.7 1.9-.7.3 0 .7.1 1 .2s.6.3.8.5.4.5.6.8.2.7.2 1.1-.1.8-.2 1.1c-.2.3-.4.6-.6.8-.3.2-.5.4-.9.5-.3.1-.6.2-1 .2-.7 0-1.3-.2-1.9-.7-.4-.5-.7-1.1-.7-1.9zm2.6-1.6c-.3 0-.5.1-.8.4a1.53 1.53 0 0 0-.4 1 1.92 1.92 0 0 0 .4 1.2c.3.3.6.5 1 .5s.7-.1.9-.4a1.69 1.69 0 0 0 .3-1c0-.4-.1-.8-.3-1.2-.3-.3-.6-.5-1.1-.5zM26.9 41.2h-2.5v1h2.3v.8h-2.3v1.2H27v.9h-3.7v-4.8h3.5v.9zm3.7-.8c.3.1.6.3.8.6.2.2.3.5.3.8.1.3.1.5.1.8 0 .6-.1 1.2-.4 1.6-.3.6-.9.9-1.6.9h-2.1v-4.8h2.1c.4 0 .6.1.8.1zm-1.8.8v3.1h.9c.5 0 .8-.2 1-.7.1-.3.2-.6.2-.9 0-.5-.1-.9-.2-1.1-.2-.3-.5-.4-.9-.4h-1zm4.8 3.9h-1v-4.8h1v4.8zm1.4-4.3c.4-.4.9-.6 1.5-.6.8 0 1.4.3 1.8.8.2.3.3.6.3.9h-1c-.1-.2-.1-.4-.2-.5-.2-.2-.4-.3-.8-.3s-.6.1-.8.4-.3.7-.3 1.3c0 .5.1.9.3 1.2s.5.4.8.4.6-.1.8-.3c.1-.1.2-.3.2-.6h1c-.1.5-.3 1-.7 1.3s-.8.5-1.4.5c-.7 0-1.2-.2-1.6-.7-.4-.4-.6-1.1-.6-1.8 0-.9.2-1.5.7-2zm5.2 4.3h-1v-4.8h1v4.8zm4.7-.4c-.4.4-.9.6-1.6.6s-1.2-.2-1.6-.6c-.5-.5-.7-1.1-.7-2s.2-1.5.7-2c.4-.4.9-.6 1.6-.6s1.2.2 1.6.6c.5.4.7 1.1.7 2s-.2 1.6-.7 2zm-.6-.7c.2-.3.4-.7.4-1.3 0-.5-.1-1-.4-1.3-.3-.2-.6-.4-1-.4s-.7.1-1 .4c-.2.3-.4.7-.4 1.3 0 .5.1 1 .4 1.3.2.3.6.4 1 .4s.7-.1 1-.4zm.1-5.2l-1 1h-.7l.6-1h1.1zm2 1.5h1.1l1.9 3.4v-3.4h.9v4.8h-1l-2-3.4v3.4h-.9v-4.8zM30.8 3.8c14.3 0 26 11.1 27 25.2l3.8-.6C60.3 12.5 47 0 30.8 0 17.6 0 6.4 8.2 1.9 19.9l3.4 1.7C9.2 11.2 19.1 3.8 30.8 3.8zm0 54.2c-14.3 0-26-11.1-27-25.2l-3.8.6c1.3 15.9 14.6 28.4 30.8 28.4a30.86 30.86 0 0 0 28.6-19.2L56 40.9C52 50.9 42.2 58 30.8 58z"/><circle cx="312.2" cy="76.9" r="2.9"/><circle transform="matrix(.2884 -.9575 .9575 .2884 159.3938 363.6046)" cx="324.3" cy="74.6" r="2.9"/><path d="M319.7 76l-2.6 1.1-.2.1c-.2 2.5-2.2 4.4-4.7 4.4-2.6 0-4.8-2.1-4.8-4.8 0-1.2.5-2.3 1.2-3.1l-1.9-2.1c-1.3 1.4-2.1 3.2-2.1 5.3a7.6 7.6 0 1 0 15.2 0c0-.4 0-.6-.1-.9zm12.2-1.4a7.6 7.6 0 1 0-15.2 0c0 .3 0 .8.1 1.2l2.7-1.2c0-2.6 2.2-4.7 4.8-4.7s4.8 2.1 4.8 4.8a4.58 4.58 0 0 1-2.3 4l1.2 2.6c2.3-1.4 3.9-3.9 3.9-6.7zm4.2 8c0 .1 0 .2.1.3s.2.1.3.1h.8c.3 0 .5-.1.6-.2s.2-.2.2-.4l1.1-2.9h7.4l1.1 2.9c0 .1.1.2.2.4.1.1.3.2.6.2h.8c.1 0 .2 0 .3-.1s.1-.2.1-.3 0-.2-.1-.3l-5.2-13.6c-.1-.2-.2-.3-.3-.5s-.4-.2-.6-.2h-1.3c-.3 0-.5.1-.6.2-.1.2-.2.3-.3.5l-5.2 13.6v.3zM343 70l2.9 7.7H340l3-7.7zm16.4 12.9c.1-.1.2-.2.2-.4v-5.8c0-1 .2-1.8.7-2.3s1.1-.7 1.8-.7c.8 0 1.4.3 1.9.8.4.5.6 1.3.6 2.4v5.7c0 .2.1.3.2.4s.2.2.4.2h.8c.2 0 .3-.1.4-.2s.2-.2.2-.4v-5.9c0-1.5-.3-2.7-1-3.5-.7-.9-1.7-1.3-3.1-1.3-.5 0-.9 0-1.2.1s-.7.2-.9.4c-.3.2-.5.4-.7.6s-.4.5-.6.7c-.3-.6-.8-1.1-1.3-1.4a4.65 4.65 0 0 0-2.1-.5c-.4 0-.7 0-1 .1l-.8.3c-.2.1-.4.3-.6.5s-.3.4-.4.5v-.7c0-.2-.1-.3-.2-.4s-.2-.2-.4-.2h-.8c-.2 0-.3.1-.4.2s-.2.2-.2.4v9.9c0 .2.1.3.2.4s.2.2.4.2h.8c.2 0 .3-.1.4-.2s.2-.2.2-.4v-5.8c0-1 .2-1.8.7-2.3s1.1-.7 1.8-.7c.8 0 1.4.3 1.9.8.4.5.6 1.3.6 2.4v5.7c0 .2.1.3.2.4s.2.2.4.2h.8c-.1 0 0 0 .1-.2zm9.1-2.5c.3.6.6 1.1 1 1.5s.9.8 1.5 1 1.2.4 1.9.4c.8 0 1.4-.1 2-.3s1-.4 1.4-.7.7-.5.9-.8.3-.6.4-.8c0-.2 0-.3-.1-.4a.76.76 0 0 0-.4-.2h-.6c-.2 0-.3 0-.4.1-.1 0-.2.1-.3.2-.2.3-.6.5-.9.7-.4.2-1 .3-1.8.3s-1.5-.3-2.1-.8-.9-1.3-.9-2.2v-.1h7.3c.2 0 .3-.1.4-.2s.2-.2.2-.4v-.6c0-.8-.1-1.6-.3-2.2-.2-.7-.6-1.2-1-1.7s-.9-.8-1.5-1.1c-.6-.2-1.3-.4-2-.4s-1.3.1-1.9.4c-.6.2-1.1.6-1.5 1s-.7.9-1 1.5-.4 1.2-.5 1.8c-.1.7-.1 1.3 0 2-.2.8 0 1.4.2 2zm1.5-3.9c0-.4.1-.8.3-1.2s.4-.7.6-.9l.9-.6c.4-.1.7-.2 1.1-.2.9 0 1.6.3 2.2.8.5.5.8 1.2.8 2.1v.1l-5.9-.1zm18.9 6V68.6c0-.2-.1-.3-.2-.4s-.2-.2-.4-.2h-.8c-.2 0-.3.1-.4.2s-.2.2-.2.4v4.7c-.3-.4-.7-.7-1.2-1s-1.2-.5-2.1-.5c-.7 0-1.3.1-1.9.4-.6.2-1.1.6-1.5 1s-.8 1-1 1.6c-.3.6-.4 1.3-.4 2.1v1.4c0 .8.2 1.5.4 2.1.3.6.6 1.2 1 1.6s.9.8 1.5 1 1.2.4 1.9.4c.9 0 1.6-.1 2.1-.4s.9-.6 1.2-1v.7c0 .2.1.3.2.4s.2.2.4.2h.8c.2 0 .3-.1.4-.2.1-.3.2-.4.2-.6zm-2-4c0 .9-.3 1.6-.9 2.2-.6.5-1.3.8-2.2.8s-1.7-.3-2.2-.9-.8-1.4-.9-2.4V77c.1-1 .4-1.8.9-2.4s1.3-.9 2.2-.9 1.6.3 2.2.8.9 1.3.9 2.3v.8c.1.4 0 .7 0 .9zm4.4-8.1h1.2c.2 0 .3-.1.4-.2s.2-.2.2-.4v-1.2c0-.2-.1-.3-.2-.4s-.2-.2-.4-.2h-1.2c-.2 0-.3.1-.4.2s-.2.2-.2.4v1.2c0 .2.1.3.2.4.2.1.3.2.4.2zm.3 1.7c-.2 0-.3.1-.4.2s-.2.2-.2.4v9.9c0 .2.1.3.2.4s.2.2.4.2h.8c.2 0 .3-.1.4-.2s.2-.2.2-.4v-9.9c0-.2-.1-.3-.2-.4s-.2-.2-.4-.2h-.8zm5.2 10.8c.1-.1.2-.2.2-.4v-6.2c0-1.6.8-2.4 2.4-2.4h1.2c.2 0 .3-.1.4-.2s.2-.2.2-.4v-.7c0-.2-.1-.3-.2-.4s-.2-.2-.4-.2h-1.1c-.6 0-1.2.1-1.6.3s-.7.5-1 .9v-.7c0-.2-.1-.3-.2-.4s-.2-.2-.4-.2h-.8c-.2 0-.3.1-.4.2s-.2.2-.2.4v9.9c0 .2.1.3.2.4s.2.2.4.2h.8c.3.1.4.1.5-.1zm13.7-9.8c-.4-.4-.9-.7-1.5-.9s-1.2-.3-1.8-.3c-.9 0-1.6.2-2.1.5s-.9.6-1.2 1v-4.7c0-.2-.1-.3-.2-.4s-.2-.2-.4-.2h-.8c-.2 0-.3.1-.4.2s-.2.2-.2.4v13.9c0 .2.1.3.2.4s.2.2.4.2h.8c.2 0 .3-.1.4-.2s.2-.2.2-.4V77c0-1.1.3-1.9.8-2.4s1.3-.8 2.2-.8 1.7.3 2.2.8.8 1.4.8 2.4v5.6c0 .2.1.3.2.4s.2.2.4.2h.8c.2 0 .3-.1.4-.2s.2-.2.2-.4v-5.9c0-.7-.1-1.4-.3-2a5 5 0 0 0-1.1-1.6zm0-5h-.2l-.3.6-.3-.6h-.2v1.2h.1v-.7l.2.4h.1l.2-.4v.7h.1l.3-1.2zm1.3 1.2l-.3-.4c.1 0 .1-.1.2-.1 0-.1.1-.1.1-.2s0-.2-.1-.3-.2-.1-.3-.1h-.5v1.2h.1V69h.2l.2.4h.1l.3-.1c0 .1 0 .1 0 0zm-.3-.7h-.5v-.3h.5l.1.1-.1.2zm9.2-1.6h.8v17.5h-.8zm9.4 2c1.1-.2 2.6-.3 4.1-.3 2.6 0 4.4.5 5.7 1.6s2.2 2.8 2.2 5.2c0 2.5-.9 4.4-2.2 5.6-1.4 1.3-3.6 1.9-6.3 1.9-1.5 0-2.6-.1-3.4-.2V69zm2.5 11.9c.4.1.9.1 1.4.1 3.3 0 5.3-1.8 5.3-5.4 0-3.1-1.8-4.9-5-4.9-.8 0-1.4.1-1.7.1v10.1zm14.2-12.1v14h-2.6v-14h2.6zM461 82.2c-.9.3-2.6.8-4.5.8-2.4 0-4.2-.6-5.5-1.9-1.2-1.2-2-3-2-5.2 0-4.4 3.2-7.3 7.8-7.3 1.7 0 3.1.4 3.7.7l-.6 2.1a8.24 8.24 0 0 0-3.2-.6c-3 0-5.1 1.8-5.1 5s2 5.1 4.9 5.1c.9 0 1.6-.1 1.9-.3v-3.5H456v-2h4.9v7.1zm5.1-13.4v14h-2.6v-14h2.6zm5.6 2.2h-4v-2.1h10.6V71h-4v11.9h-2.6V71zm9.6 7.9l-1.2 4h-2.6l4.5-14h3.3l4.5 14H487l-1.3-4h-4.4zm4-1.9l-1.1-3.4c-.3-.9-.5-1.8-.7-2.6h0l-.7 2.6-1.1 3.4h3.6zm6.4-8.2h2.6v11.9h5.8v2.1h-8.3v-14z"/></svg>